:version 1.10
:name ASF
:units
  mass 1
  length 1
  angle deg
:documentation
  ASF file generated by Kaydara
:root
  axis xyz
  order  tx ty tz rx ry rz
  position 0 0 0
  orientation 0 0 0
:bonedata
  begin
    id 1
    name RightUpLegDummy
    direction -0.65628 -0.754516 0.00165102
    length 4.76918
    axis 0 0 0 xyz
  end
  begin
    id 2
    name RightUpLeg
    direction -0.145584 -0.923362 0.355256
    length 17.9961
    axis -24.7611 -13.1006 1.78531 xyz
    dof rx ry rz
  end
  begin
    id 3
    name RightLeg
    direction 0.263379 0.172355 -0.949171
    length 13.3386
    axis 89.6202 -21.1929 12.3855 xyz
    dof rx ry rz
  end
  begin
    id 4
    name RightFoot
    direction 0.224283 -0.968777 -0.105675
    length 5.86697
    axis 56.995 -39.6905 17.3365 xyz
    dof rx ry rz
  end
  begin
    id 5
    name RightToes
    direction -0.0806345 -0.9037 0.420506
    length 4.75197
    axis 146.825 -39.7828 17.6019 xyz
    dof rx ry rz
  end
  begin
    id 6
    name SpineDummy
    direction -3.39852e-014 1 9.33296e-014
    length 8.13779
    axis 0 0 0 xyz
  end
  begin
    id 7
    name Spine
    direction -0.156609 0.733703 0.661176
    length 7.14978
    axis 41.2365 5.68757 17.0844 xyz
    dof rx ry rz
  end
  begin
    id 8
    name Spine1
    direction 0 0 0
    length 0
    axis 42.8809 47.8308 -3.36039 xyz
    dof rx ry rz
  end
  begin
    id 9
    name HEadDummy
    direction 0.546431 0.701947 0.456819
    length 3.55512
    axis 42.8809 47.8308 -3.36039 xyz
  end
  begin
    id 10
    name HEad
    direction 0.23444 0.828559 0.508457
    length 7.35827
    axis 51.1864 49.2662 27.4903 xyz
    dof rx ry rz
  end
  begin
    id 11
    name LeftShoulder1Dummy
    direction 0.431183 0.475873 -0.766568
    length 2.49352
    axis 42.8809 47.8308 -3.36039 xyz
  end
  begin
    id 12
    name LeftShoulder1
    direction 0.268187 -0.383402 -0.883786
    length 4.48604
    axis -119.517 0.106469 35.1736 xyz
    dof rx ry rz
  end
  begin
    id 13
    name LeftArm
    direction 0.380567 -0.703221 -0.600541
    length 10.1142
    axis -5.41825 36.2925 7.8293 xyz
    dof rx ry rz
  end
  begin
    id 14
    name LeftForeArm
    direction 0.541071 -0.732356 -0.413396
    length 9.39839
    axis 4.65387 33.7604 7.81644 xyz
    dof rx ry rz
  end
  begin
    id 15
    name LeftHand
    direction 0.847511 -0.389379 -0.360707
    length 3.66142
    axis 7.65593 21.1436 -24.6758 xyz
    dof rx ry rz
  end
  begin
    id 16
    name RightShoulderDummy
    direction -0.692546 0.541855 0.476208
    length 2.49352
    axis 42.8809 47.8308 -3.36039 xyz
  end
  begin
    id 17
    name RightShoulder
    direction -0.870808 -0.316653 0.376065
    length 4.48602
    axis 141.571 51.133 -100.254 xyz
    dof rx ry rz
  end
  begin
    id 18
    name RightArm
    direction 0.366897 -0.87275 0.322015
    length 10.1142
    axis 92.3258 71.2036 138.917 xyz
    dof rx ry rz
  end
  begin
    id 19
    name RightForeArm
    direction 0.702487 -0.694568 0.155197
    length 9.39835
    axis 153.863 41.5092 -176.604 xyz
    dof rx ry rz
  end
  begin
    id 20
    name RightHand
    direction 0.79502 -0.601276 0.0800636
    length 3.66142
    axis 154.247 4.59222 142.9 xyz
    dof rx ry rz
  end
  begin
    id 21
    name LeftUpLegDummy
    direction 0.65628 -0.754516 0.00165102
    length 4.76919
    axis 0 0 0 xyz
  end
  begin
    id 22
    name LeftUpLeg
    direction -0.1277 -0.689368 0.713067
    length 17.9961
    axis -48.3385 -17.8675 0.791927 xyz
    dof rx ry rz
  end
  begin
    id 23
    name LeftLeg
    direction 0.109849 -0.991246 -0.0732378
    length 13.3386
    axis -2.05791 -7.30784 1.72042 xyz
    dof rx ry rz
  end
  begin
    id 24
    name LeftFoot
    direction 0.0448355 -0.272614 0.961078
    length 5.86697
    axis -18.7733 -7.89606 10.2113 xyz
    dof rx ry rz
  end
  begin
    id 25
    name LeftToes
    direction -0.18506 0.293668 0.937823
    length 4.75197
    axis 71.2267 -7.89606 10.2113 xyz
    dof rx ry rz
  end
:hierarchy
  begin
    root RightUpLegDummy SpineDummy LeftUpLegDummy
    RightUpLegDummy RightUpLeg
    RightUpLeg RightLeg
    RightLeg RightFoot
    RightFoot RightToes
    SpineDummy Spine
    Spine Spine1
    Spine1 HEadDummy LeftShoulder1Dummy RightShoulderDummy
    HEadDummy HEad
    LeftShoulder1Dummy LeftShoulder1
    LeftShoulder1 LeftArm
    LeftArm LeftForeArm
    LeftForeArm LeftHand
    RightShoulderDummy RightShoulder
    RightShoulder RightArm
    RightArm RightForeArm
    RightForeArm RightHand
    LeftUpLegDummy LeftUpLeg
    LeftUpLeg LeftLeg
    LeftLeg LeftFoot
    LeftFoot LeftToes
  end

:SAMPLES-PER-SECOND 30
:FULLY-SPECIFIED
:DEGREES
114
root  0.524406 37.0994 1.00492 176.289 -47.1429 176.351
RightUpLeg  15.6149 5.90749 18.5102
RightLeg  -78.6343 -17.3955 10.6459
RightFoot  2.90033 7.63427 -18.3186
RightToes  -1.27222e-014 -6.36111e-015 6.36111e-015
Spine  -29.6135 -13.3015 -11.0131
Spine1  4.15969 -10.0369 42.7881
HEad  5.55979 -64.2578 -15.9274
LeftShoulder1  6.36111e-015 -1.33558e-015 6.49777e-015
LeftArm  14.1914 -39.4696 -47.4596
LeftForeArm  -104.441 -35.8275 77.2306
LeftHand  -1.18426 -2.47944 -3.61474
RightShoulder  -4.77083e-015 -6.36111e-015 -3.18055e-015
RightArm  36.5597 -37.5023 -7.74192
RightForeArm  -63.9413 10.1054 -39.5379
RightHand  -0.56549 6.11411 -6.61272
LeftUpLeg  1.99003 32.7317 -0.441354
LeftLeg  19.3496 4.4508 4.41563
LeftFoot  0.825181 3.16769 -10.3749
LeftToes  1.27222e-014 1.09105e-011 6.96064e-012
115
root  -0.488518 36.4472 0.434638 175.604 -47.1203 177.056
RightUpLeg  16.6358 6.54225 20.132
RightLeg  -76.5877 -19.9119 14.512
RightFoot  -0.552699 8.93722 -20.952
RightToes  -1.27222e-014 -6.36111e-015 6.36111e-015
Spine  -35.8923 -13.9328 -11.1572
Spine1  8.69382 -10.2529 43.4405
HEad  9.43287 -62.5675 -18.3118
LeftShoulder1  6.36111e-015 -1.33558e-015 6.49777e-015
LeftArm  21.9089 -27.8087 -46.292
LeftForeArm  -109.013 -32.3301 78.8991
LeftHand  -1.08915 -2.0694 -4.43119
RightShoulder  -4.77083e-015 -6.36111e-015 -3.18055e-015
RightArm  56.9913 -49.5801 -22.5634
RightForeArm  -82.0335 4.88783 -25.3386
RightHand  -1.83639 11.1017 -3.87754
LeftUpLeg  5.9507 34.8482 0.760717
LeftLeg  26.5281 3.53048 5.47825
LeftFoot  0.953311 2.72293 -8.88246
LeftToes  1.27222e-014 1.09105e-011 6.96064e-012
116
root  -1.38374 35.7337 0.127295 175.255 -44.9578 178.247
RightUpLeg  15.9244 5.65995 20.3354
RightLeg  -72.4272 -21.6629 14.6226
RightFoot  -4.0026 9.43431 -21.9451
RightToes  -1.27222e-014 -6.36111e-015 6.36111e-015
Spine  -42.9773 -12.2205 -9.23137
Spine1  14.8256 -9.66574 41.1836
HEad  7.71225 -60.5058 -17.764
LeftShoulder1  6.36111e-015 -1.33558e-015 6.49777e-015
LeftArm  28.1233 -17.8158 -42.7574
LeftForeArm  -110.613 -28.9289 84.4744
LeftHand  -0.318716 -0.260308 -2.67117
RightShoulder  -4.77083e-015 -6.36111e-015 -3.18055e-015
RightArm  78.9875 -53.9197 -39.3165
RightForeArm  -91.642 5.65558 -19.5342
RightHand  -2.13673 12.1688 -0.269776
LeftUpLeg  9.36037 37.1438 4.29025
LeftLeg  30.0066 3.23522 6.05649
LeftFoot  0.469053 2.66129 -8.80821
LeftToes  1.27222e-014 1.09105e-011 6.96064e-012
117
root  -2.0093 35.1356 0.0544861 174.713 -42.5975 179.227
RightUpLeg  15.2772 4.40917 19.4066
RightLeg  -67.8598 -22.1379 12.4914
RightFoot  -7.43489 9.30555 -21.3071
RightToes  -1.27222e-014 -6.36111e-015 6.36111e-015
Spine  -46.0698 -10.2425 -7.71813
Spine1  17.6144 -8.82432 39.0138
HEad  7.50033 -57.9595 -18.7571
LeftShoulder1  6.36111e-015 -1.33558e-015 6.49777e-015
LeftArm  31.9531 -10.8646 -39.7539
LeftForeArm  -108.256 -27.9365 91.7037
LeftHand  0.599897 1.88085 -1.30666
RightShoulder  -4.77083e-015 -6.36111e-015 -3.18055e-015
RightArm  87.0812 -54.4257 -46.0255
RightForeArm  -91.6016 6.84727 -26.0935
RightHand  -1.63371 9.43463 -0.406594
LeftUpLeg  11.8361 38.7642 8.56494
LeftLeg  29.7887 5.15939 7.45712
LeftFoot  -0.917569 2.68008 -9.25833
LeftToes  1.27222e-014 1.09105e-011 6.96064e-012
